<?xml version="1.0" standalone="no"?><!DOCTYPE svg PUBLIC "-//W3C//DTD SVG 1.1//EN" "http://www.w3.org/Graphics/SVG/1.1/DTD/svg11.dtd"><svg t="1632473551300" class="icon" viewBox="0 0 1024 1024" version="1.1" xmlns="http://www.w3.org/2000/svg" p-id="2492" xmlns:xlink="http://www.w3.org/1999/xlink" width="64" height="64"><defs><style type="text/css"></style></defs><path d="M1016.106 854.37a26.948 26.948 0 0 1 7.894 19.08c0 14.9-12.074 26.974-26.974 26.974H129.466c-35.758 0-68.12-14.492-91.538-37.928C14.492 839.078 0 806.716 0 770.958c0-71.516 57.966-129.484 129.466-129.484h867.56c14.9 0 26.974 12.092 26.974 26.974 0 14.9-12.074 26.974-26.974 26.974H344.29c-41.644 0-75.516 33.892-75.516 75.534 0 41.644 33.874 75.516 75.516 75.516h652.736a26.954 26.954 0 0 1 19.08 7.898z" fill="#7CBAF7" p-id="2493"></path><path d="M1016.106 854.37a26.948 26.948 0 0 1 7.894 19.08c0 14.9-12.074 26.974-26.974 26.974H328.178c-35.758 0-68.12-14.492-91.538-37.928-23.436-23.418-37.928-55.78-37.928-91.538 0-71.516 57.966-129.484 129.466-129.484h668.848c14.9 0 26.974 12.092 26.974 26.974 0 14.9-12.074 26.974-26.974 26.974H344.29c-41.644 0-75.516 33.892-75.516 75.534 0 41.644 33.874 75.516 75.516 75.516h652.736a26.954 26.954 0 0 1 19.08 7.898z" fill="#229BFF" p-id="2494"></path><path d="M344.294 846.474c-41.644 0-75.524-33.878-75.524-75.522s33.88-75.524 75.524-75.524H995.94v151.046z" fill="#F1EEE0" p-id="2495"></path><path d="M995.94 846.474H344.294c-41.644 0-75.524-33.878-75.524-75.522H995.94z" fill="#D8D4C9" p-id="2496"></path><path d="M986.672 595.42a26.952 26.952 0 0 1 7.894 19.08c0 14.9-12.074 26.974-26.974 26.974h-706.44c-35.758 0-68.12-14.492-91.538-37.928-23.436-23.418-37.928-55.78-37.928-91.538 0-71.516 57.966-129.484 129.466-129.484h706.442c14.9 0 26.974 12.092 26.974 26.974 0 14.9-12.074 26.974-26.974 26.974H475.976c-41.644 0-75.516 33.892-75.516 75.534 0 41.644 33.874 75.516 75.516 75.516h491.616a26.964 26.964 0 0 1 19.08 7.898z" fill="#79FF79" p-id="2497"></path><path d="M986.672 595.42a26.952 26.952 0 0 1 7.894 19.08c0 14.9-12.074 26.974-26.974 26.974H459.866c-35.758 0-68.12-14.492-91.538-37.928-23.436-23.418-37.928-55.78-37.928-91.538 0-71.516 57.966-129.484 129.466-129.484h507.728c14.9 0 26.974 12.092 26.974 26.974 0 14.9-12.074 26.974-26.974 26.974H475.976c-41.644 0-75.516 33.892-75.516 75.534 0 41.644 33.874 75.516 75.516 75.516h491.616a26.964 26.964 0 0 1 19.08 7.898z" fill="#29E088" p-id="2498"></path><path d="M475.98 587.526c-41.644 0-75.524-33.878-75.524-75.522s33.88-75.524 75.524-75.524h490.528v151.046z" fill="#F1EEE0" p-id="2499"></path><path d="M966.508 587.526H475.98c-41.644 0-75.524-33.878-75.524-75.522h566.05v75.522z" fill="#D8D4C9" p-id="2500"></path><path d="M895.84 336.472a26.948 26.948 0 0 1 7.894 19.08c0 14.9-12.074 26.974-26.974 26.974H170.32c-35.758 0-68.12-14.492-91.538-37.928-23.436-23.418-37.928-55.78-37.928-91.538 0-71.516 57.966-129.484 129.466-129.484h706.442c14.9 0 26.974 12.092 26.974 26.974 0 14.9-12.074 26.974-26.974 26.974H385.146c-41.644 0-75.516 33.892-75.516 75.534s33.874 75.516 75.516 75.516h491.616a26.964 26.964 0 0 1 19.078 7.898z" fill="#FFE059" p-id="2501"></path><path d="M895.84 336.472a26.948 26.948 0 0 1 7.894 19.08c0 14.9-12.074 26.974-26.974 26.974H369.034c-35.758 0-68.12-14.492-91.538-37.928-23.436-23.418-37.928-55.78-37.928-91.538 0-71.516 57.966-129.484 129.466-129.484h507.728c14.9 0 26.974 12.092 26.974 26.974 0 14.9-12.074 26.974-26.974 26.974H385.146c-41.644 0-75.516 33.892-75.516 75.534s33.874 75.516 75.516 75.516h491.616a26.964 26.964 0 0 1 19.078 7.898z" fill="#FFAF40" p-id="2502"></path><path d="M755.184 328.578h-147.554c-14.898 0-26.974 12.076-26.974 26.974s12.076 26.974 26.974 26.974h147.554c14.898 0 26.974-12.076 26.974-26.974s-12.076-26.974-26.974-26.974z" fill="#FFC751" p-id="2503"></path><path d="M385.148 328.578c-41.644 0-75.524-33.878-75.524-75.522s33.88-75.524 75.524-75.524h490.528v151.046z" fill="#F1EEE0" p-id="2504"></path><path d="M875.676 328.578H385.148c-41.644 0-75.524-33.878-75.524-75.522h566.05v75.522z" fill="#D8D4C9" p-id="2505"></path><path d="M856.924 677.676l-44.56-27.816a16.61 16.61 0 0 0-17.586 0l-44.56 27.816c-9.632 6.012-22.12-0.912-22.12-12.268V512h150.946v153.408c0 11.354-12.486 18.28-22.12 12.268z" fill="#FE255F" p-id="2506"></path><path d="M728.098 512h150.946v37.764h-150.946z" fill="#E01152" p-id="2507"></path><path d="M427.308 695.422h236.548c14.898 0 26.974-12.076 26.974-26.974s-12.076-26.974-26.974-26.974H427.308c-14.898 0-26.974 12.076-26.974 26.974s12.076 26.974 26.974 26.974z" fill="#48ACFF" p-id="2508"></path><path d="M578.326 641.474h-102.614c-14.898 0-26.974 12.076-26.974 26.974s12.076 26.974 26.974 26.974h102.614c14.898 0 26.974-12.076 26.974-26.974s-12.076-26.974-26.974-26.974z" fill="#7CBAF7" p-id="2509"></path><path d="M253.652 826.74c13.732-7.33 20.856-22.998 17.21-38.13a75.31 75.31 0 0 1-2.088-17.652c0-25.114 12.32-47.404 31.234-61.146 10.572-7.68 15.192-21.164 11.672-33.748-5.416-19.356-27.404-28.588-45.078-19.014-40.428 21.9-67.888 64.69-67.888 113.908 0 12.312 1.722 24.22 4.936 35.498 5.99 21.016 30.126 30.892 49.404 20.604zM848.924 846.474h-229.3c-14.898 0-26.974 12.076-26.974 26.974s12.076 26.974 26.974 26.974h229.3c14.898 0 26.974-12.076 26.974-26.974s-12.078-26.974-26.974-26.974z" fill="#48ACFF" p-id="2510"></path><path d="M803.748 846.474h-67.822c-14.898 0-26.974 12.076-26.974 26.974s12.076 26.974 26.974 26.974h67.822c14.898 0 26.974-12.076 26.974-26.974s-12.076-26.974-26.974-26.974z" fill="#7CBAF7" p-id="2511"></path><path d="M845.816 382.526H547.442c-14.898 0-26.974 12.076-26.974 26.974s12.076 26.974 26.974 26.974h298.374c14.898 0 26.974-12.076 26.974-26.974s-12.076-26.974-26.974-26.974z" fill="#79FF79" p-id="2512"></path><path d="M776.93 382.526h-135.958c-14.898 0-26.974 12.076-26.974 26.974s12.076 26.974 26.974 26.974h135.958c14.898 0 26.974-12.076 26.974-26.974s-12.078-26.974-26.974-26.974z" fill="#C2FFC2" p-id="2513"></path><path d="M656.508 587.526h-127.716c-14.898 0-26.974 12.076-26.974 26.974s12.076 26.974 26.974 26.974h127.716c14.898 0 26.974-12.076 26.974-26.974s-12.078-26.974-26.974-26.974z" fill="#79FF79" p-id="2514"></path><path d="M311.852 271.28a75.494 75.494 0 0 1-2.21-19.744c0.82-41.358 35.6-74.01 76.966-74.01h207.34c14.898 0 26.974-12.076 26.974-26.974s-12.076-26.974-26.974-26.974H370.984c-70.964 0-130.196 56.294-131.396 127.248a129.29 129.29 0 0 0 5.19 38.656c5.784 19.712 26.192 29.812 45.366 22.44l0.646-0.248c16.202-6.232 25.256-23.55 21.062-40.394z" fill="#FFC751" p-id="2515"></path><path d="M527.952 123.578H416.64c-14.898 0-26.974 12.076-26.974 26.974s12.076 26.974 26.974 26.974h111.312c14.898 0 26.974-12.076 26.974-26.974s-12.076-26.974-26.974-26.974z" fill="#FFE059" p-id="2516"></path><path d="M111.756 849.7c4.062-14.948-1.494-30.562-13.488-40.366a49.86 49.86 0 0 1-3.748-3.394c-9.496-9.476-14.646-22.088-14.518-35.47 0.262-27.322 23.278-48.99 50.6-48.99h32.296c22.092 0 40-17.908 40-40s-17.908-40-40-40H129.46C57.96 641.48 0 699.44 0 770.96c0 35.76 14.5 68.12 37.92 91.54a129.92 129.92 0 0 0 9.598 8.69c22.448 18.368 56.444 7.278 64.028-20.718l0.21-0.772z" fill="#A9CFFC" p-id="2517"></path><path d="M51.912 767.584c14.398 0 27.352-8.056 34.476-20.568a50.456 50.456 0 0 1 17.284-17.866c11.778-7.294 18.89-20.21 18.89-34.064 0-31.228-34.256-50.844-60.848-34.474A130.04 130.04 0 0 0 16.72 707.324c-15.212 26.922 4.27 60.26 35.192 60.26z" fill="#CBE1FF" p-id="2518"></path><path d="M251.582 585.542c0-13.11-6.894-25.034-17.796-32.312a49.99 49.99 0 0 1-7.586-6.23c-9.38-9.38-14.52-21.78-14.52-35 0-17.146 8.77-32.28 22.06-41.16 10.936-7.308 17.844-19.28 17.844-32.434 0-32.374-36.224-51.766-63.018-33.596C154.24 428.086 131.68 467.406 131.68 512c0 35.76 14.5 68.12 37.94 91.54a129.76 129.76 0 0 0 18.71 15.506c26.856 18.302 63.252-1.004 63.252-33.504z" fill="#C2FFC2" p-id="2519"></path><path d="M134.664 287.33c-8.926-9.29-13.804-21.41-13.804-34.27 0-12.506 4.662-23.94 12.342-32.658 12.022-13.648 12.508-33.998 1.964-48.818l-0.336-0.472c-14.796-20.798-45.188-22.432-61.994-3.222-19.908 22.758-31.976 52.546-31.976 85.17 0 35.76 14.48 68.12 37.92 91.54 23.42 23.44 55.78 37.92 91.54 37.92h34.416c22.092 0 40-17.908 40-40s-17.908-40-40-40H171.428c-13.78 0-27.216-5.252-36.764-15.19z" fill="#FFF370" p-id="2520"></path><path d="M109.794 200.04c-22.228-19.336-57.08-8.692-64.626 19.786a129.592 129.592 0 0 0-4.308 33.236c0 35.76 14.48 68.12 37.92 91.54a129.376 129.376 0 0 0 8.446 7.738c21.926 18.376 55.556 8.82 64.096-18.484l0.24-0.768c4.834-15.398-0.578-31.828-12.998-42.132a46.872 46.872 0 0 1-3.898-3.624c-8.926-9.29-13.804-21.41-13.804-34.27 0-4.466 0.594-8.796 1.71-12.914 3.95-14.61-1.36-30.176-12.778-40.108z" fill="#FFF7C7" p-id="2521"></path></svg>