<?xml version="1.0" standalone="no"?><!DOCTYPE svg PUBLIC "-//W3C//DTD SVG 1.1//EN" "http://www.w3.org/Graphics/SVG/1.1/DTD/svg11.dtd"><svg t="1631697262251" class="icon" viewBox="0 0 1024 1024" version="1.1" xmlns="http://www.w3.org/2000/svg" p-id="2492" xmlns:xlink="http://www.w3.org/1999/xlink" width="64" height="64"><defs><style type="text/css"></style></defs><path d="M190.958677 671.546399l-10.823909-61.381488 293.561551-51.763568c16.949859-2.987975 33.113724 8.329931 36.101699 25.279789 2.987975 16.949859-8.329931 33.113724-25.279789 36.101699z" fill="#8F8B81" p-id="2493"></path><path d="M357.007293 578.979171l-45.377622 8.001934c-16.949859 2.987975-28.267764 19.15184-25.279789 36.101699 2.987975 16.949859 19.15184 28.267764 36.101699 25.279789l45.377621-8.001934c16.949859-2.987975 28.267764-19.15184 25.27979-36.101698-2.987975-16.951859-19.15184-28.269764-36.101699-25.27979z" fill="#B5B1A4" p-id="2494"></path><path d="M339.507439 582.063146l-10.037917 1.769985c-17.435855 3.073974-28.80776 20.039833-25.027791 37.335689 3.57197 16.337864 19.397838 26.945775 35.867701 24.041799l10.137915-1.787985c18.061849-3.183973 29.463754-21.223823 24.589795-38.903676-4.279964-15.525871-19.667836-25.251789-35.529703-22.455812z" fill="#D8D4C9" p-id="2495"></path><path d="M148.371033 651.306568m-118.323014 0a118.323013 118.323013 0 1 0 236.646027 0 118.323013 118.323013 0 1 0-236.646027 0Z" fill="#FC709B" p-id="2496"></path><path d="M110.893345 589.203086m-45.53962 0a45.53962 45.53962 0 1 0 91.07924 0 45.53962 45.53962 0 1 0-91.07924 0Z" fill="#F7A6C1" p-id="2497"></path><path d="M259.548105 691.780231c-22.345814 61.391488-90.229248 93.065224-151.642735 70.71141s-93.079224-90.257247-70.73341-151.650735a118.843009 118.843009 0 0 1 5.251956-12.261898c-8.955925 40.691661 13.383888 82.73731 53.587553 97.371188 43.811635 15.945867 92.237231-6.651945 108.177098-50.443579 15.937867-43.791635-6.629945-92.229231-50.443579-108.177098a84.355296 84.355296 0 0 0-15.073874-3.957967c16.521862-1.395988 33.58572 0.703994 50.173581 6.741944 61.411488 22.355814 93.055224 90.253247 70.70341 151.666735z" fill="#FE255F" p-id="2498"></path><path d="M609.471187 524.187628m-203.960299 0a203.960299 203.960299 0 1 0 407.920598 0 203.960299 203.960299 0 1 0-407.920598 0Z" fill="#29E088" p-id="2499"></path><path d="M654.70081 432.89039m-43.397638 0a43.397638 43.397638 0 1 0 86.795276 0 43.397638 43.397638 0 1 0-86.795276 0Z" fill="#0CC166" p-id="2500"></path><path d="M658.498778 658.22851m-43.397638 0a43.397638 43.397638 0 1 0 86.795276 0 43.397638 43.397638 0 1 0-86.795276 0Z" fill="#0CC166" p-id="2501"></path><path d="M520.805927 579.747165a105.50912 105.50912 0 0 1-6.999942-13.18789c-22.185815-50.037583-1.481988-109.591086 47.001608-134.992874a105.635119 105.635119 0 0 1 16.415863-6.915943c22.77981-7.397938 37.381688-29.625753 34.041716-53.343555l-0.139999-0.995991c-4.295964-30.399746-34.847709-49.747585-64.065465-40.321664a206.150281 206.150281 0 0 0-23.613803 9.263923c-101.529153 47.225606-145.912783 165.954616-100.187165 268.167763a205.362287 205.362287 0 0 0 12.955892 24.421797c15.097874 24.337797 47.9056 30.425746 71.137407 13.673885 20.35383-14.677878 26.765777-44.493629 13.453888-65.769451z" fill="#79FF79" p-id="2502"></path><path d="M473.818318 517.051688l1.001992-0.177999c17.015858-3.019975 31.12574-14.769877 37.427688-30.861742a105.215123 105.215123 0 0 1 20.559828-32.933726c13.493887-14.643878 17.239856-35.777702 8.823927-53.825551l-0.701994-1.503987c-14.765877-31.667736-56.831526-38.299681-80.729327-12.807893a203.040307 203.040307 0 0 0-41.489654 66.301447c-13.657886 35.691702 17.475854 72.473396 55.10754 65.809451z" fill="#C2FFC2" p-id="2503"></path><path d="M794.311646 437.992347c47.603603 102.087149 3.451971 223.434137-98.653178 271.04574-82.177315 38.31968-176.824525 17.187857-235.452036-45.781618 51.283572 31.435738 116.871025 37.365688 175.484536 10.033916 92.827226-43.285639 132.988891-153.632719 89.695252-246.477945-27.323772-58.597511-81.377321-96.211198-140.888825-105.087123 85.379288-10.569912 171.49457 34.087716 209.814251 116.26703z" fill="#0CC166" p-id="2504"></path><path d="M883.080905 866.022778l-47.745602 40.063665-191.608402-228.350095c-11.063908-13.18389-9.343922-32.841726 3.841968-43.905634 13.18389-11.063908 32.841726-9.343922 43.905634 3.841968z" fill="#8F8B81" p-id="2505"></path><path d="M784.563727 748.613757l-59.235506-70.593412c-11.063908-13.18389-30.719744-14.903876-43.905634-3.841968-13.18389 11.063908-14.903876 30.719744-3.841968 43.905634l59.235506 70.593412c11.063908 13.18389 30.719744 14.903876 43.905634 3.841968 13.18589-11.063908 14.905876-30.719744 3.841968-43.905634z" fill="#B5B1A4" p-id="2506"></path><path d="M695.706468 739.681831l8.169932 9.735919c11.063908 13.18389 30.719744 14.903876 43.905634 3.841968 13.18389-11.063908 14.903876-30.719744 3.841968-43.905634l-8.169932-9.735919c-11.063908-13.18389-30.719744-14.903876-43.905634-3.841968-13.18589 11.063908-14.905876 30.721744-3.841968 43.905634z" fill="#D8D4C9" p-id="2507"></path><path d="M875.638967 905.646447m-118.323013 0a118.323013 118.323013 0 1 0 236.646027 0 118.323013 118.323013 0 1 0-236.646027 0Z" fill="#FFE059" p-id="2508"></path><path d="M838.16128 843.542965m-45.53962 0a45.53962 45.53962 0 1 0 91.07924 0 45.53962 45.53962 0 1 0-91.07924 0Z" fill="#FFF370" p-id="2509"></path><path d="M986.81604 946.12011c-22.345814 61.391488-90.229248 93.065224-151.642735 70.71141s-93.077224-90.257247-70.73341-151.650735a119.029007 119.029007 0 0 1 5.251956-12.261898c-8.955925 40.691661 13.383888 82.73731 53.587553 97.371188 43.811635 15.945867 92.237231-6.651945 108.177098-50.44358s-6.629945-92.229231-50.44358-108.177097a84.355296 84.355296 0 0 0-15.073874-3.957967c16.521862-1.395988 33.58572 0.703994 50.173582 6.741943 61.413488 22.355814 93.057224 90.253247 70.70341 151.666736z" fill="#FFC751" p-id="2510"></path><path d="M719.798267 129.920916l58.569512 21.317823-101.95315 280.113664c-5.885951 16.173865-23.769802 24.511796-39.943667 18.625844-16.173865-5.885951-24.511796-23.769802-18.625845-39.943667z" fill="#8F8B81" p-id="2511"></path><path d="M667.378704 273.941715l-31.517737 86.597278c-5.885951 16.173865 2.45198 34.057716 18.625845 39.943667 16.173865 5.885951 34.057716-2.45198 39.943667-18.625845l31.517737-86.597277c5.885951-16.173865-2.45198-34.057716-18.625845-39.943667-16.173865-5.885951-34.055716 2.45398-39.943667 18.625844z" fill="#B5B1A4" p-id="2512"></path><path d="M704.074398 355.363036l4.345964-11.9419c5.885951-16.173865-2.45198-34.057716-18.625845-39.943667-16.173865-5.885951-34.057716 2.45198-39.943667 18.625845l-4.345963 11.9419c-5.885951 16.173865 2.45198 34.057716 18.625844 39.943667 16.173865 5.885951 34.055716-2.45198 39.943667-18.625845z" fill="#D8D4C9" p-id="2513"></path><path d="M757.183955 118.355013m-118.323013 0a118.323013 118.323013 0 1 0 236.646026 0 118.323013 118.323013 0 1 0-236.646026 0Z" fill="#7CBAF7" p-id="2514"></path><path d="M719.706268 56.251531m-45.53962 0a45.53962 45.53962 0 1 0 91.07924 0 45.53962 45.53962 0 1 0-91.07924 0Z" fill="#A9CFFC" p-id="2515"></path><path d="M868.361028 158.828675c-22.345814 61.391488-90.229248 93.065224-151.642735 70.711411s-93.079224-90.257247-70.73341-151.650736a119.029007 119.029007 0 0 1 5.251956-12.261897c-8.955925 40.691661 13.383888 82.73731 53.587553 97.371188 43.811635 15.945867 92.237231-6.651945 108.177098-50.44358 15.937867-43.791635-6.629945-92.229231-50.44358-108.177098A84.355296 84.355296 0 0 0 747.484036 0.419996c16.521862-1.395988 33.58572 0.703994 50.173582 6.741944 61.411488 22.355814 93.057224 90.253247 70.70341 151.666735z" fill="#48ACFF" p-id="2516"></path></svg>